<svg width="33" height="35" viewBox="0 0 33 35" fill="none" xmlns="http://www.w3.org/2000/svg">
<path fill-rule="evenodd" clip-rule="evenodd" d="M4.7415 10.2429C5.08037 10.2204 5.41431 10.3334 5.66993 10.557C5.92555 10.7806 6.08195 11.0965 6.10475 11.4354L6.89058 23.2229C7.04433 25.524 7.15367 27.1264 7.39283 28.3308C7.62688 29.501 7.95146 30.1194 8.41783 30.5567C8.88592 30.9941 9.52483 31.2777 10.707 31.4314C11.9268 31.5903 13.5326 31.5937 15.8388 31.5937H17.1611C19.4673 31.5937 21.0732 31.5903 22.2929 31.4314C23.4751 31.2777 24.114 30.9941 24.5821 30.5567C25.0485 30.1194 25.373 29.501 25.6071 28.3325C25.8463 27.1264 25.9556 25.524 26.1093 23.2212L26.8952 11.4354C26.9064 11.2674 26.9506 11.1034 27.0252 10.9525C27.0998 10.8017 27.2034 10.667 27.3301 10.5562C27.4568 10.4454 27.604 10.3606 27.7634 10.3067C27.9229 10.2528 28.0914 10.2309 28.2593 10.2421C28.4272 10.2533 28.5913 10.2975 28.7421 10.3721C28.8929 10.4467 29.0276 10.5503 29.1384 10.677C29.2492 10.8037 29.334 10.9509 29.3879 11.1104C29.4418 11.2698 29.4638 11.4383 29.4525 11.6062L28.6599 23.4825C28.5147 25.6726 28.3968 27.4442 28.12 28.833C27.8313 30.2766 27.3428 31.4827 26.3314 32.4274C25.3201 33.3721 24.085 33.7821 22.6243 33.9717C21.2201 34.1562 19.4468 34.1562 17.2516 34.1562H15.7483C13.5531 34.1562 11.7798 34.1562 10.3756 33.9717C8.91496 33.7821 7.67813 33.3738 6.6685 32.4274C5.65717 31.4827 5.16858 30.2749 4.87988 28.833C4.60313 27.4424 4.48696 25.6726 4.34004 23.4825L3.54738 11.6062C3.53624 11.4383 3.5583 11.2698 3.61229 11.1104C3.66627 10.951 3.75114 10.8038 3.86203 10.6772C3.97292 10.5506 4.10766 10.4471 4.25857 10.3726C4.40947 10.2981 4.57357 10.254 4.7415 10.2429ZM13.6898 0.843694H13.6112C13.2422 0.843694 12.9193 0.843694 12.6152 0.891527C12.0229 0.986413 11.461 1.21861 10.9745 1.56953C10.4881 1.92046 10.0905 2.38037 9.81354 2.91249C9.67004 3.18582 9.56925 3.49161 9.45308 3.84182L9.42746 3.91698L9.26175 4.4124L9.21221 4.55932C9.05754 4.98866 8.7694 5.35716 8.39002 5.6108C8.01064 5.86443 7.55999 5.98986 7.10413 5.96869H1.97913C1.63932 5.96869 1.31343 6.10368 1.07315 6.34396C0.832864 6.58424 0.697876 6.91013 0.697876 7.24994C0.697876 7.58975 0.832864 7.91564 1.07315 8.15592C1.31343 8.3962 1.63932 8.53119 1.97913 8.53119H31.0225C31.3623 8.53119 31.6882 8.3962 31.9285 8.15592C32.1688 7.91564 32.3038 7.58975 32.3038 7.24994C32.3038 6.91013 32.1688 6.58424 31.9285 6.34396C31.6882 6.10368 31.3623 5.96869 31.0225 5.96869H25.742C25.2857 5.95775 24.845 5.80089 24.4843 5.52111C24.1237 5.24134 23.8622 4.85337 23.7382 4.41411L23.5725 3.91698L23.5485 3.84182C23.4307 3.49161 23.3299 3.18582 23.1881 2.91249C22.911 2.38017 22.5131 1.92012 22.0263 1.56918C21.5395 1.21824 20.9773 0.986164 20.3847 0.891527C20.0543 0.85135 19.7215 0.835363 19.3888 0.843694H13.6898ZM11.6227 5.43057C11.5543 5.61735 11.4763 5.79672 11.3886 5.96869H21.6113C21.5237 5.79445 21.4461 5.61536 21.379 5.43228L21.3106 5.23753L21.1415 4.72503C21.0795 4.51075 21.0036 4.30075 20.9143 4.09636C20.8221 3.91871 20.6895 3.76513 20.5272 3.64795C20.365 3.53077 20.1775 3.45323 19.9798 3.42157C19.7572 3.40185 19.5335 3.39671 19.3102 3.40619H13.6898C13.1978 3.40619 13.0953 3.40961 13.0201 3.42328C12.8226 3.45476 12.6352 3.53203 12.473 3.64891C12.3107 3.76579 12.1781 3.91903 12.0856 4.09636C12.0515 4.16469 12.0139 4.25865 11.8584 4.72673L11.6876 5.23924L11.6227 5.43057Z" fill="white" stroke="white"/>
</svg>
