<svg width="396" height="403" viewBox="0 0 396 403" fill="none" xmlns="http://www.w3.org/2000/svg">
<path d="M311.861 167H86.1395C71.7031 167 60 177.63 60 190.743V320.257C60 333.37 71.7031 344 86.1395 344H311.861C326.297 344 338 333.37 338 320.257V190.743C338 177.63 326.297 167 311.861 167Z" stroke="#C59216" stroke-width="3" stroke-linecap="round" stroke-linejoin="round"/>
<path d="M346.231 127.722H51.6742C32.8352 127.722 17.5632 142.985 17.5632 161.813V347.778C17.5632 366.606 32.8352 381.869 51.6742 381.869H346.231C365.07 381.869 380.342 366.606 380.342 347.778V161.813C380.342 142.985 365.07 127.722 346.231 127.722Z" stroke="#C59216" stroke-width="3" stroke-linecap="round" stroke-linejoin="round"/>
<path d="M210.156 125.024C238.395 89.3262 266.705 53.698 294.944 18" stroke="#C59216" stroke-width="3" stroke-linecap="round" stroke-linejoin="round"/>
<path d="M187.788 125.024C159.549 89.3262 131.239 53.698 103 18" stroke="#C59216" stroke-width="3" stroke-linecap="round" stroke-linejoin="round"/>
</svg>
