<?xml version="1.0" encoding="UTF-8"?>
<svg id="_Слой_5" data-name="Слой 5" xmlns="http://www.w3.org/2000/svg" viewBox="0 0 91.5 71.5">
  <defs>
    <style>
      .cls-1 {
        fill: none;
        stroke: #c59216;
        stroke-linecap: round;
        stroke-linejoin: round;
        stroke-width: 3px;
      }
    </style>
  </defs>
  <path class="cls-1" d="m62,47c0,1.54-.17,3.04-.5,4.48-2.04,9.17-10.22,16.02-20,16.02-4.13,0-7.97-1.22-11.19-3.33-1.73.99-3.67,1.98-5.81,2.94-1.73.77-3.38,1.42-4.94,1.96.72-1.65,1.51-3.34,2.35-5.07.91-1.86,1.82-3.63,2.74-5.32-2.3-3.32-3.65-7.34-3.65-11.68,0-10.13,7.35-18.54,17-20.19,1.14-.21,2.31-.31,3.5-.31,11.32,0,20.5,9.18,20.5,20.5Z"/>
  <path class="cls-1" d="m88.31,50.63c-1.59-.41-3.29-.92-5.08-1.56-2.22-.79-4.21-1.65-5.98-2.51-4.1,3.1-9.22,4.94-14.75,4.94-.34,0-.67-.01-1-.02.33-1.44.5-2.94.5-4.48,0-11.32-9.18-20.5-20.5-20.5-1.19,0-2.36.1-3.5.31.1-13.44,11.03-24.31,24.5-24.31s24.5,10.97,24.5,24.5c0,5.14-1.58,9.91-4.29,13.85.95,1.62,1.9,3.26,2.85,4.92.93,1.63,1.85,3.25,2.75,4.86Z"/>
</svg>