<?xml version="1.0" encoding="UTF-8"?>
<svg id="_Слой_5" data-name="Слой 5" xmlns="http://www.w3.org/2000/svg" viewBox="0 0 91.5 71.5">
  <defs>
    <style>
      .cls-1 {
        fill: #c59216;
        stroke-width: 0px;
      }

      .cls-2 {
        fill: none;
        stroke: #c59216;
        stroke-linecap: round;
        stroke-linejoin: round;
        stroke-width: 3px;
      }
    </style>
  </defs>
  <path class="cls-2" d="m90,13.59v32.24c0,6.65-5.4,12.09-12,12.09h-23.19c-5.94,4.03-11.87,8.06-17.81,12.09v-12.09c-6.13,1.06-11.68-.55-14.48-3.56-2.46-2.63-3.2-5.76-3.2-5.76-.21-.89-.32-1.82-.32-2.77V13.59c0-6.65,5.4-12.09,12-12.09h47c6.6,0,12,5.44,12,12.09Z"/>
  <ellipse class="cls-1" cx="54.26" cy="43.31" rx="2" ry="2.01"/>
  <path class="cls-2" d="m48.24,25.68c-.14-3.9,2.78-6.98,6-7.05,3-.07,5.71,2.47,6,5.04.26,2.29-1.44,4.36-2,5.04-1.21,1.47-2.11,1.59-3,3.02-.9,1.44-1.02,2.99-1,4.03"/>
</svg>