<svg id="Layer_1" data-name="Layer 1" xmlns="http://www.w3.org/2000/svg" viewBox="0 0 98.6 88.51"><defs><style>.cls-1{fill:none;stroke:#c59216;stroke-miterlimit:10;stroke-width:3px;}</style></defs><path class="cls-1" d="M78.08,72.41H23.78a4.24,4.24,0,0,1-4.34-4.13V33.53h-.68a2,2,0,0,1-2-2V21a2.65,2.65,0,0,1,2.68-2.62H82.75A2.65,2.65,0,0,1,85.43,21V31.58a2,2,0,0,1-2,2h-1V68.28A4.24,4.24,0,0,1,78.08,72.41Z"/><line class="cls-1" x1="19.44" y1="33.53" x2="82.41" y2="33.53"/><line class="cls-1" x1="41.58" y1="18.34" x2="41.58" y2="72.41"/><line class="cls-1" x1="60.27" y1="18.34" x2="60.27" y2="72.41"/><path class="cls-1" d="M33,17.7S30.34,9,37.49,8.22s13,7.34,13.1,10.67"/><path class="cls-1" d="M69.11,17.7S71.71,9,64.57,8.22s-13,7.34-13.1,10.67"/></svg>