<svg width="52" height="50" viewBox="0 0 52 50" fill="none" xmlns="http://www.w3.org/2000/svg">
<path d="M11.3606 24.3383L8.85777 35.203L20.2133 30.7513L11.3606 24.3383Z" fill="white"/>
<path d="M12.4009 32.868L16.2949 31.3789C17.9218 35.633 21.9175 38.5 26.3946 38.6557C31.1331 38.8205 35.5219 35.8986 37.2582 31.3896L40.5824 33.7742C38.0608 39.0017 32.9011 42.4247 27.216 42.6163C20.9492 42.8298 15.0836 39.0736 12.5206 33.1661" fill="white"/>
<path d="M41.2423 26.8405L43.8205 15.9929L32.4375 20.3577L41.2423 26.8405Z" fill="white"/>
<path d="M39.7956 17.8588L35.8883 19.313C34.2933 15.0523 30.32 12.1539 25.8482 11.9674C21.1083 11.7688 16.7011 14.6577 14.9302 19.1512L11.6204 16.744C14.1783 11.5369 19.3684 8.14812 25.0518 7.99728C31.3209 7.83451 37.1561 11.631 39.679 17.5538" fill="white"/>
</svg>
