<svg id="Layer_1" data-name="Layer 1" xmlns="http://www.w3.org/2000/svg" viewBox="0 0 105.71 68.56"><defs><style>.cls-1{fill:#c59216;}</style></defs><path class="cls-1" d="M39.93,31.6c-.25-.3-.48-.63-.76-.91-2-1.93-3.91-3.86-5.9-5.75a3.92,3.92,0,0,1,2.31-7c2.72-.34,5.43-.8,8.15-1.16a1.78,1.78,0,0,0,1.51-1.12c1.19-2.5,2.45-5,3.66-7.47a3.9,3.9,0,0,1,7.28,0c1.2,2.47,2.46,4.91,3.62,7.39a1.91,1.91,0,0,0,1.65,1.22c2.75.36,5.49.79,8.24,1.16A3.89,3.89,0,0,1,72,24.81c-2,2-4,3.92-6,5.89-.28.28-.51.61-.76.91l.12.27c1.49-.23,3-.42,4.46-.72.25-.05.48-.48.63-.78,1.26-2.51,2.51-5,3.73-7.55a3.92,3.92,0,0,1,7.33,0c1.19,2.47,2.45,4.91,3.62,7.39a1.82,1.82,0,0,0,1.57,1.17c2.75.37,5.5.8,8.25,1.17a3.85,3.85,0,0,1,3.46,2.61,3.79,3.79,0,0,1-1.16,4.25c-2,2-4,3.94-6.06,5.87a1.78,1.78,0,0,0-.58,1.79c.49,2.7.93,5.41,1.43,8.11a3.93,3.93,0,0,1-1.39,4.2,3.88,3.88,0,0,1-4.49.18C83.65,58.27,81.2,57,78.8,55.71a2,2,0,0,0-2.13,0c-2.41,1.31-4.86,2.55-7.28,3.84A3.8,3.8,0,0,1,65,59.4a3.89,3.89,0,0,1-1.42-4.18c.5-2.7.94-5.41,1.4-8.11.24-1.43,0-1.63-1.44-1.57A5.4,5.4,0,0,1,61.06,45c-2.58-1.26-5.11-2.62-7.63-4a1.7,1.7,0,0,0-1.79,0c-2.47,1.34-5,2.62-7.45,3.94a4.22,4.22,0,0,1-3.13.49c-.74-.19-1.14.3-1,1.26.32,2.08.69,4.15,1,6.23.13.82.29,1.63.43,2.45a3.82,3.82,0,0,1-1.47,4,3.74,3.74,0,0,1-4.23.24c-2.54-1.34-5.1-2.65-7.62-4a1.7,1.7,0,0,0-1.79,0c-2.5,1.35-5,2.64-7.53,4a3.81,3.81,0,0,1-4.33-.18,3.86,3.86,0,0,1-1.46-4.17c.49-2.73.94-5.47,1.44-8.2A1.78,1.78,0,0,0,14,45.27c-2-1.91-4-3.88-6-5.8a3.86,3.86,0,0,1-1.22-4.33,3.94,3.94,0,0,1,3.57-2.61c2.75-.35,5.49-.79,8.24-1.17A1.69,1.69,0,0,0,20,30.29c1.21-2.54,2.49-5,3.72-7.56a3.81,3.81,0,0,1,3.57-2.45A3.86,3.86,0,0,1,31,22.75c1.23,2.52,2.51,5,3.71,7.56a1.66,1.66,0,0,0,1.44,1.05c1.23.14,2.46.33,3.68.49Zm1.36,10.06c0,.8.63,1.05,1.47.61,2.46-1.28,4.93-2.54,7.36-3.89a4.56,4.56,0,0,1,4.8,0c2.42,1.34,4.9,2.61,7.37,3.87a1.31,1.31,0,0,0,1.11.1,1.26,1.26,0,0,0,.28-1.07c-.44-2.84-.9-5.68-1.43-8.5a4.18,4.18,0,0,1,1.31-4.07q3.1-3,6.16-6a1.31,1.31,0,0,0,.42-1.05c-.09-.27-.6-.52-1-.58-2.8-.45-5.61-.9-8.42-1.25a4.33,4.33,0,0,1-3.64-2.71C56,14.62,54.74,12.2,53.51,9.79a4.82,4.82,0,0,0-1-1,5,5,0,0,0-.93,1c-1.29,2.52-2.54,5.07-3.79,7.62a4,4,0,0,1-3.24,2.38q-4.21.59-8.43,1.26a4.73,4.73,0,0,0-1.22.55,4.31,4.31,0,0,0,.63,1.27c2,2,4.1,4,6.15,6a3.83,3.83,0,0,1,1.21,3.47c-.18,1.2-.41,2.39-.62,3.59C41.94,37.85,41.62,39.77,41.29,41.66Zm-2-6.73c-1.41-.22-2.69-.44-4-.6A4,4,0,0,1,32,31.9c-1.23-2.53-2.46-5-3.74-7.55a4.53,4.53,0,0,0-1-1,5,5,0,0,0-.92,1c-1.29,2.54-2.52,5.09-3.78,7.64a4,4,0,0,1-3.17,2.34q-4.36.61-8.71,1.3a1.52,1.52,0,0,0-1,.64c-.11.22.22.75.48,1,2,2,3.93,3.93,6,5.82a4.56,4.56,0,0,1,1.45,4.5c-.51,2.69-1,5.4-1.41,8.11a1.46,1.46,0,0,0,.26,1.19,1.42,1.42,0,0,0,1.19-.11c2.51-1.27,5-2.56,7.46-3.91a4.35,4.35,0,0,1,4.46,0c2.44,1.32,4.9,2.6,7.38,3.86.38.2,1,.36,1.27.17a1.58,1.58,0,0,0,.25-1.27c-.43-2.74-1-5.47-1.37-8.21a4,4,0,0,1,.23-2.59A7.11,7.11,0,0,0,38.35,41C38.53,39,39,37,39.32,34.93Zm26.44,0c.1.65.23,1.24.29,1.83.2,2.05,1.06,4,.65,6.15a.8.8,0,0,0,.25.57,4.32,4.32,0,0,1,1,4.17c-.49,2.7-1,5.41-1.39,8.12a1.52,1.52,0,0,0,.31,1.17c.18.17.79,0,1.11-.13,2.5-1.28,5-2.57,7.46-3.92a4.42,4.42,0,0,1,4.55,0c2.46,1.35,5,2.64,7.45,3.92.33.17.93.3,1.12.13a1.54,1.54,0,0,0,.31-1.18c-.43-2.71-.89-5.41-1.4-8.11a4.52,4.52,0,0,1,1.4-4.51c2-1.92,4-3.91,6-5.89a1.34,1.34,0,0,0,.44-1c-.08-.28-.59-.53-.95-.59q-4.31-.69-8.62-1.28a4.1,4.1,0,0,1-3.37-2.49c-1.23-2.52-2.47-5-3.74-7.55-.2-.37-.63-.88-1-.88s-.74.51-.94.88c-1.29,2.53-2.53,5.09-3.78,7.64a4,4,0,0,1-3.23,2.38C68.47,34.49,67.16,34.72,65.76,34.93Z"/></svg>