<svg width="79" height="53" viewBox="0 0 79 53" fill="none" xmlns="http://www.w3.org/2000/svg">
<path d="M57.0516 16C57.9375 17.3668 59.8642 20.7354 59.9933 25.4621C60.1395 30.8413 57.8687 34.6772 57 36" stroke="#C59316" stroke-width="3" stroke-miterlimit="10" stroke-linecap="round"/>
<path d="M19.9484 16C19.0625 17.3668 17.1358 20.7354 17.0067 25.4621C16.8605 30.8413 19.1313 34.6772 20 36" stroke="#C59316" stroke-width="3" stroke-miterlimit="10" stroke-linecap="round"/>
<path d="M67.1015 6C68.8741 8.64543 72.7238 15.1698 72.9815 24.3241C73.2704 34.7274 68.7414 42.1594 67 44.7273" stroke="#C59316" stroke-width="3" stroke-miterlimit="10" stroke-linecap="round"/>
<path d="M9.86852 6.09088C8.09593 8.73631 4.24622 15.2607 3.98853 24.415C3.69961 34.8183 8.22868 42.2503 9.97003 44.8182" stroke="#C59316" stroke-width="3" stroke-miterlimit="10" stroke-linecap="round"/>
<path d="M38.7657 36.5662C44.7115 36.5662 49.5315 31.7384 49.5315 25.7831C49.5315 19.8278 44.7115 15 38.7657 15C32.82 15 28 19.8278 28 25.7831C28 31.7384 32.82 36.5662 38.7657 36.5662Z" fill="#C59316"/>
</svg>
